<?xml version="1.0" encoding="utf-8"?>
<!-- Generator: Adobe Illustrator 22.1.0, SVG Export Plug-In . SVG Version: 6.00 Build 0)  -->
<svg version="1.1" id="图层_1" xmlns="http://www.w3.org/2000/svg" xmlns:xlink="http://www.w3.org/1999/xlink" x="0px" y="0px"
	 viewBox="0 0 16 16" style="enable-background:new 0 0 16 16;" xml:space="preserve">
<style type="text/css">
	.st0{fill:#2D2D30;}
	.st1{fill:#2B282E;}
	.st2{fill:#0078D4;}
	.st3{fill:none;stroke:#424242;stroke-width:0.8;}
	.st4{fill:none;stroke:#424242;}
</style>
<title>AzureDPSservice</title>
<desc>Created with Sketch.</desc>
<g id="AzureDPSservice-">
	<g id="Group-43">
		<path id="Fill-3" class="st0" d="M8.4,12.6c-0.1,0-0.3-0.1-0.4-0.1c-0.1,0-0.3,0-0.4,0.1c-2.5-0.2-4.5-2.3-4.5-4.8
			c0-0.7,0.2-1.4,0.5-2C3.8,5.5,4,5.3,4.1,5C4.9,3.7,6.4,2.9,8,2.9c1.6,0,3.1,0.8,3.9,2.1c0.1,0.3,0.2,0.6,0.4,0.8
			c0.3,0.6,0.5,1.3,0.5,2C12.8,10.3,10.9,12.4,8.4,12.6 M15.7,7.7c0-1.2-0.3-2.3-0.8-3.3c-0.1-0.4-0.3-0.8-0.6-1
			c-1.4-2-3.7-3.3-6.3-3.3c-2.6,0-4.9,1.3-6.3,3.3C1.4,3.7,1.2,4,1.1,4.5c-0.5,1-0.8,2.1-0.8,3.3c0,4,3.1,7.3,7,7.6
			c0.2,0.1,0.4,0.1,0.6,0.1c0.2,0,0.4,0,0.6-0.1C12.5,15.1,15.7,11.8,15.7,7.7"/>
		<path id="Fill-1" class="st1" d="M11.5,9.2l-0.7-1.3c0-0.2,0.1-0.3,0.1-0.5c0-1-0.7-1.8-1.6-2L8.5,4.3c0,0,0-0.1,0-0.1
			c0-1-0.8-1.9-1.9-1.9c-1,0-1.9,0.8-1.9,1.9C4.8,5,5.3,5.7,6,6l0,0.1L4.9,6.1c-0.3-0.2-0.6-0.3-1-0.3C2.8,5.8,2,6.7,2,7.7
			c0,1,0.8,1.9,1.9,1.9c0.5,0,0.9-0.2,1.2-0.5l0.7,0c-0.2,0.3-0.4,0.7-0.4,1c0,0.9,0.8,1.7,1.7,1.7c0.8,0,1.5-0.6,1.7-1.3l0.1,0.1
			c0,0.1,0,0.2,0,0.3c0,1,0.8,1.9,1.9,1.9c1,0,1.9-0.8,1.9-1.9C12.5,10.1,12.1,9.5,11.5,9.2"/>
		<path id="Fill-5" class="st2" d="M6.6,13.4c-2.6-0.6-4.5-2.9-4.5-5.7c0-0.6,0.1-1.1,0.2-1.6C2.1,6.1,1.9,6,1.6,5.8
			c-0.2,0.6-0.3,1.3-0.3,2c0,3.2,2.2,5.8,5.2,6.5c0-0.1,0-0.2,0-0.2C6.5,13.8,6.5,13.6,6.6,13.4"/>
		<path id="Fill-7" class="st2" d="M13.6,6.1c0.2,0.5,0.2,1.1,0.2,1.6c0,2.7-1.9,5.1-4.5,5.7c0.1,0.2,0.1,0.4,0.1,0.6
			c0,0.1,0,0.2,0,0.2c3-0.7,5.2-3.3,5.2-6.5c0-0.7-0.1-1.3-0.3-2C14.1,6,13.9,6.1,13.6,6.1"/>
		<path id="Fill-9" class="st2" d="M3.8,3.7C4.8,2.6,6.3,1.9,8,1.9c1.7,0,3.2,0.7,4.2,1.8c0.2-0.2,0.4-0.4,0.6-0.5
			C11.7,1.9,9.9,1.1,8,1.1c-1.9,0-3.7,0.8-4.9,2.1C3.4,3.3,3.6,3.5,3.8,3.7"/>
		<path id="Stroke-21" class="st3" d="M6.7,4.2l2.1,3.1"/>
		<path id="Stroke-23" class="st3" d="M3.9,7.7l4.9-0.3"/>
		<path id="Stroke-25" class="st4" d="M7.1,10.1l1.7-2.8"/>
		<path id="Stroke-27" class="st3" d="M10.7,10.8L8.8,7.3"/>
		<g id="Stroke-29">
			<rect x="7.2" y="3.9" transform="matrix(0.8321 -0.5547 0.5547 0.8321 -1.9098 5.2455)" class="st2" width="1" height="3.8"/>
		</g>
		<g id="Stroke-31">
			
				<rect x="3.9" y="7" transform="matrix(0.9975 -7.131647e-02 7.131647e-02 0.9975 -0.5204 0.4692)" class="st2" width="4.9" height="1"/>
		</g>
		<g id="Stroke-33">
			<rect x="6.3" y="8.2" transform="matrix(0.5174 -0.8557 0.8557 0.5174 -3.6407 10.9893)" class="st2" width="3.2" height="1"/>
		</g>
		<g id="Stroke-35">
			<rect x="9.2" y="7.1" transform="matrix(0.8763 -0.4817 0.4817 0.8763 -3.1789 5.8046)" class="st2" width="1" height="4"/>
		</g>
		<path id="Fill-37" class="st2" d="M2.6,3.6c-0.6,0-1,0.4-1,1s0.4,1,1,1c0.6,0,1-0.4,1-1S3.1,3.6,2.6,3.6"/>
		<path id="Fill-39" class="st2" d="M13.4,3.6c-0.6,0-1,0.4-1,1s0.4,1,1,1c0.6,0,1-0.4,1-1S14,3.6,13.4,3.6"/>
		<path id="Fill-41" class="st2" d="M8,13c-0.6,0-1,0.4-1,1s0.4,1,1,1c0.6,0,1-0.4,1-1S8.6,13,8,13"/>
		<path id="Fill-17" class="st2" d="M9.8,7.3c0,0.6-0.5,1-1,1c-0.6,0-1-0.5-1-1s0.5-1,1-1C9.3,6.3,9.8,6.8,9.8,7.3"/>
		<path id="Fill-11" class="st2" d="M7.5,4.2c0,0.5-0.4,0.9-0.9,0.9c-0.5,0-0.9-0.4-0.9-0.9c0-0.5,0.4-0.9,0.9-0.9
			C7.1,3.3,7.5,3.7,7.5,4.2"/>
		<path id="Fill-13" class="st2" d="M4.7,7.7c0,0.5-0.4,0.9-0.9,0.9C3.4,8.6,3,8.2,3,7.7c0-0.5,0.4-0.9,0.9-0.9
			C4.3,6.8,4.7,7.2,4.7,7.7"/>
		<path id="Fill-15" class="st2" d="M11.5,10.8c0,0.5-0.4,0.9-0.9,0.9c-0.5,0-0.9-0.4-0.9-0.9c0-0.5,0.4-0.9,0.9-0.9
			C11.2,10,11.5,10.4,11.5,10.8"/>
		<path id="Fill-19" class="st2" d="M7.8,10.1c0,0.4-0.3,0.7-0.7,0.7c-0.4,0-0.7-0.3-0.7-0.7c0-0.4,0.3-0.7,0.7-0.7
			C7.5,9.4,7.8,9.7,7.8,10.1"/>
	</g>
</g>
<g id="not_x5F_fg">
</g>
</svg>
