<svg width="16" height="16" viewBox="0 0 16 16" fill="none" xmlns="http://www.w3.org/2000/svg">
<path d="M13.3 10.3L12.3 8.49999C12.4 8.19999 12.5 7.79999 12.5 7.49999C12.5 6.19999 11.5 5.09999 10.1 4.99999L9.09999 3.59999C9.19999 3.39999 9.19999 3.19999 9.19999 2.99999C9.19999 1.79999 8.19999 0.799988 6.99999 0.799988C5.79999 0.799988 4.79999 1.79999 4.79999 2.99999C4.79999 4.09999 5.59999 5.09999 6.69999 5.19999L7.29999 6.19999L4.49999 6.39999C4.09999 5.99999 3.59999 5.79999 2.99999 5.79999C1.79999 5.79999 0.799988 6.79999 0.799988 7.99999C0.799988 9.19999 1.79999 10.2 2.99999 10.2C3.69999 10.2 4.29999 9.89999 4.79999 9.29999L7.29999 9.09999L6.99999 9.49999C6.19999 9.79999 5.59999 10.5 5.59999 11.4C5.59999 12.5 6.49999 13.4 7.59999 13.4C8.69999 13.4 9.59999 12.5 9.59999 11.4C9.59999 11.3 9.59999 11.2 9.59999 11L9.99999 10.4L10.7 11.7C10.6 11.9 10.6 12.2 10.6 12.4C10.6 13.6 11.6 14.6 12.8 14.6C14 14.6 15 13.6 15 12.4C15 11.4 14.3 10.5 13.3 10.3Z" fill="#252526"/>
<path d="M15 0H13.5H11H10V1V2.5V3.5H11H12.5V5V6H13.5H15H16V5V2.5V1V0H15Z" fill="#252526"/>
<path d="M3.5 12.5V11V10H2.5H1H0V11V13.5V15V16H1H2.5H5H6V15V13.5V12.5H5H3.5Z" fill="#252526"/>
<path d="M11 1V2.5H13.5V5H15V1H11Z" fill="#0078D4"/>
<path d="M2.5 13.5V11H1V15H5V13.5H2.5Z" fill="#0078D4"/>
<path d="M6.99999 4.19999C7.66273 4.19999 8.19999 3.66273 8.19999 2.99999C8.19999 2.33725 7.66273 1.79999 6.99999 1.79999C6.33725 1.79999 5.79999 2.33725 5.79999 2.99999C5.79999 3.66273 6.33725 4.19999 6.99999 4.19999Z" fill="#0078D4"/>
<path d="M2.99999 9.19999C3.66273 9.19999 4.19999 8.66273 4.19999 7.99999C4.19999 7.33725 3.66273 6.79999 2.99999 6.79999C2.33725 6.79999 1.79999 7.33725 1.79999 7.99999C1.79999 8.66273 2.33725 9.19999 2.99999 9.19999Z" fill="#0078D4"/>
<path d="M12.8 13.7C13.4627 13.7 14 13.1627 14 12.5C14 11.8372 13.4627 11.3 12.8 11.3C12.1373 11.3 11.6 11.8372 11.6 12.5C11.6 13.1627 12.1373 13.7 12.8 13.7Z" fill="#0078D4"/>
<path d="M10 9C10.8284 9 11.5 8.32843 11.5 7.5C11.5 6.67157 10.8284 6 10 6C9.17157 6 8.5 6.67157 8.5 7.5C8.5 8.32843 9.17157 9 10 9Z" fill="#0078D4"/>
<path d="M7.60001 12.4C8.15229 12.4 8.60001 11.9523 8.60001 11.4C8.60001 10.8477 8.15229 10.4 7.60001 10.4C7.04772 10.4 6.60001 10.8477 6.60001 11.4C6.60001 11.9523 7.04772 12.4 7.60001 12.4Z" fill="#0078D4"/>
<path d="M10.4641 7.19779L9.58786 7.67969L12.3347 12.674L13.2109 12.1921L10.4641 7.19779Z" fill="#0078D4"/>
<path d="M7.40934 2.66222L6.57724 3.21692L9.57262 7.71026L10.4047 7.15556L7.40934 2.66222Z" fill="#0078D4"/>
<path d="M9.95589 7.05232L2.97339 7.55151L3.0447 8.54901L10.0272 8.04982L9.95589 7.05232Z" fill="#0078D4"/>
<path d="M9.58348 7.29764L7.20206 11.2334L8.05766 11.7511L10.4391 7.81534L9.58348 7.29764Z" fill="#0078D4"/>
</svg>
