<?xml version="1.0" encoding="utf-8"?>
<!-- Generator: Adobe Illustrator 21.1.0, SVG Export Plug-In . SVG Version: 6.00 Build 0)  -->
<svg version="1.1" id="Layer_1" xmlns="http://www.w3.org/2000/svg" xmlns:xlink="http://www.w3.org/1999/xlink" x="0px" y="0px"
	 viewBox="0 0 50 50" style="enable-background:new 0 0 50 50;" xml:space="preserve">
<style type="text/css">
	.st0{fill:#00E200;}
	.st1{opacity:0.2;}
	.st2{fill:#FFFFFF;}
	.st3{fill:none;}
	.st4{opacity:0.3;fill:#00E200;}
	.st5{opacity:0.2;fill:#FFFFFF;}
	.st6{opacity:0.2;enable-background:new    ;}
	.st7{opacity:0.2;fill:#1E1E1E;enable-background:new    ;}
	.st8{opacity:0.2;fill:#00E200;}
	.st9{opacity:0.1;fill:#00E200;}
	.st10{opacity:0.8;fill:#008900;}
	.st11{opacity:0.2;fill:#FFFFFF;enable-background:new    ;}
</style>
<g>
	<g>
		<rect x="34.4" class="st0" width="3.3" height="7.8"/>
		<rect x="27" y="0" class="st0" width="3.3" height="7.8"/>
		<rect x="19.6" y="0" class="st0" width="3.3" height="7.8"/>
		<rect x="12.2" y="0" class="st0" width="3.3" height="7.8"/>
	</g>
	<g>
		<rect x="34.4" y="42.2" class="st0" width="3.3" height="7.8"/>
		<rect x="27" y="42.2" class="st0" width="3.3" height="7.8"/>
		<rect x="19.6" y="42.2" class="st0" width="3.3" height="7.8"/>
		<rect x="12.2" y="42.2" class="st0" width="3.3" height="7.8"/>
	</g>
	<g class="st1">
		<rect x="34.4" class="st2" width="3.3" height="7.8"/>
		<rect x="27" y="0" class="st2" width="3.3" height="7.8"/>
		<rect x="19.6" y="0" class="st2" width="3.3" height="7.8"/>
		<rect x="12.2" y="0" class="st2" width="3.3" height="7.8"/>
	</g>
	<g class="st1">
		<rect x="34.4" y="42.2" class="st2" width="3.3" height="7.8"/>
		<rect x="27" y="42.2" class="st2" width="3.3" height="7.8"/>
		<rect x="19.6" y="42.2" class="st2" width="3.3" height="7.8"/>
		<rect x="12.2" y="42.2" class="st2" width="3.3" height="7.8"/>
	</g>
	<g>
		<rect x="42.2" y="34.5" class="st0" width="7.8" height="3.3"/>
		<rect x="42.2" y="27.1" class="st0" width="7.8" height="3.3"/>
		<rect x="42.2" y="19.6" class="st0" width="7.8" height="3.3"/>
		<rect x="42.2" y="12.2" class="st0" width="7.8" height="3.3"/>
	</g>
	<g>
		<rect x="0" y="34.5" class="st0" width="7.8" height="3.3"/>
		<rect x="0" y="27.1" class="st0" width="7.8" height="3.3"/>
		<rect x="0" y="19.6" class="st0" width="7.8" height="3.3"/>
		<rect y="12.2" class="st0" width="7.8" height="3.3"/>
	</g>
	<g class="st1">
		<rect x="42.2" y="34.5" class="st2" width="7.8" height="3.3"/>
		<rect x="42.2" y="27.1" class="st2" width="7.8" height="3.3"/>
		<rect x="42.2" y="19.6" class="st2" width="7.8" height="3.3"/>
		<rect x="42.2" y="12.2" class="st2" width="7.8" height="3.3"/>
	</g>
	<g class="st1">
		<rect x="0" y="34.5" class="st2" width="7.8" height="3.3"/>
		<rect x="0" y="27.1" class="st2" width="7.8" height="3.3"/>
		<rect x="0" y="19.6" class="st2" width="7.8" height="3.3"/>
		<rect y="12.2" class="st2" width="7.8" height="3.3"/>
	</g>
	<rect x="0.5" class="st3" width="49.5" height="50"/>
</g>
<g>
	<path class="st0" d="M5.9,5.9v38.2h38.2V5.9H5.9z M41.7,41.7H8.3V8.3h33.4V41.7z"/>
	<path class="st4" d="M8.3,41.7h33.4V8.3H8.3V41.7z M12.2,12.2h25.6v25.6H12.2V12.2z"/>
	<path class="st0" d="M37.8,12.2H12.2v25.6h25.6V12.2z M34.5,34.5h-19v-19h19V34.5z"/>
	<path class="st5" d="M5.9,5.9v38.2h38.2V5.9H5.9z M41.7,41.7H8.3V8.3h33.4V41.7z"/>
	<rect x="15.5" y="15.5" class="st4" width="19" height="19"/>
</g>
<path class="st5" d="M37.8,12.2H12.2v25.6h25.6V12.2z M34.5,34.5h-19v-19h19V34.5z"/>
</svg>
