<svg version="1.1" id="Layer_1" xmlns="http://www.w3.org/2000/svg" x="0px" y="0px" width="16px" height="16px" viewBox="0 0 16 16" enable-background="new 0 0 16 16"><path fill="#2F76BC" d="M14.6,3.1C14.6,3.1,14.6,3.1,14.6,3.1c-0.1,0-0.2,0-0.2,0.1l-1.9,2.4c-0.7-1.7-2.3-2.9-4.3-2.8c-2,0-3.7,1.2-4.4,3C1.8,6,0.1,7.5,0.1,9.9S2.2,14,4.5,14h7.8c2,0,3.6-1.7,3.6-3.5c0-1.5-1-2.8-2.4-3.2l2.3-3c0,0,0.1-0.1,0-0.2h0v-1L14.6,3.1z"></path><path fill="#75D0EB" d="M4.5,8.8L4.2,8.4c-0.1-0.1-0.1-0.3,0-0.4l1-0.9c0.1,0,0.1-0.1,0.2-0.1c0.1,0,0.1,0,0.2,0.1l2.7,2.9l6.1-7.9c0.1-0.1,0.1-0.1,0.2-0.1c0.1,0,0.1,0,0.1,0l1.1,0.8c0.1,0,0.1,0.1,0.1,0.2c0,0.1,0,0.1-0.1,0.2l-7.3,9.4c-0.1,0.1-0.3,0.1-0.4,0L4.5,8.8z"></path></svg>