<?xml version="1.0" encoding="utf-8"?>
<!-- Generator: Adobe Illustrator 21.1.0, SVG Export Plug-In . SVG Version: 6.00 Build 0)  -->
<svg version="1.1" id="Layer_1" xmlns="http://www.w3.org/2000/svg" xmlns:xlink="http://www.w3.org/1999/xlink" x="0px" y="0px"
	 viewBox="0 0 50 50" style="enable-background:new 0 0 50 50;" xml:space="preserve">
<style type="text/css">
	.st0{fill:#027ACC;}
	.st1{opacity:0.2;fill:#FFFFFF;enable-background:new    ;}
	.st2{opacity:0.2;fill:#1E1E1E;enable-background:new    ;}
</style>
<g>
	<polygon class="st0" points="14.9,11.5 23.4,6.6 12.1,0.1 0.8,6.6 9.3,11.5 12.1,13.1 	"/>
	<polygon class="st1" points="14.9,11.5 23.4,6.6 12.1,0.1 0.8,6.6 9.3,11.5 12.1,13.1 	"/>
	<polygon class="st0" points="24.2,21 24.2,8 15.7,12.9 12.9,14.5 12.9,27.5 	"/>
	<polygon class="st2" points="24.2,21 24.2,8 15.7,12.9 12.9,14.5 12.9,27.5 	"/>
	<polygon class="st0" points="0,8 0,21 11.3,27.5 11.3,14.5 8.5,12.9 	"/>
	<polygon class="st0" points="40.7,11.5 49.2,6.6 37.9,0.1 26.6,6.6 35.1,11.5 37.9,13.1 	"/>
	<polygon class="st1" points="40.7,11.5 49.2,6.6 37.9,0.1 26.6,6.6 35.1,11.5 37.9,13.1 	"/>
	<polygon class="st0" points="50,21 50,8 41.5,12.9 38.7,14.5 38.7,27.5 	"/>
	<polygon class="st0" points="25.8,8 25.8,21 37.1,27.5 37.1,14.5 34.3,12.9 	"/>
	<polygon class="st0" points="27.8,33.9 36.3,29 25,22.5 13.7,29 22.2,33.9 25,35.5 	"/>
	<polygon class="st2" points="25.8,8 25.8,21 37.1,27.5 37.1,14.5 34.3,12.9 	"/>
	<polygon class="st2" points="27.8,33.9 36.3,29 25,22.5 13.7,29 22.2,33.9 25,35.5 	"/>
	<polygon class="st0" points="37.1,43.4 37.1,30.4 28.6,35.3 25.8,36.9 25.8,49.9 	"/>
	<polygon class="st0" points="12.9,30.4 12.9,43.4 24.2,49.9 24.2,36.9 21.4,35.3 	"/>
</g>
</svg>
